<?xml version="1.0" encoding="UTF-8"?> 
<svg xmlns="http://www.w3.org/2000/svg" width="120" height="28" viewBox="0 0 120 28" fill="none"> 
<g clip-path="url(#clip0_12_472)"> <path d="M0 19.4945C1.04553 21.9509 2.79038 24.0456 5.01739 25.5178C7.2444 26.9901 9.85521 27.7749 12.5249 27.7745C11.4788 25.3185 9.73381 23.2242 7.50693 21.752C5.28004 20.2798 2.66951 19.4948 0 19.4945H0Z" fill="#18A95D"></path> <path d="M12.5249 20.9711C18.1615 20.9711 22.7309 16.4017 22.7309 10.7651C22.7309 5.12846 18.1615 0.559082 12.5249 0.559082C6.88826 0.559082 2.31888 5.12846 2.31888 10.7651C2.31888 16.4017 6.88826 20.9711 12.5249 20.9711Z" fill="#FCBF00"></path> <path d="M12.5249 27.7745C14.4862 27.774 16.4059 27.2086 18.0544 26.1458C19.7028 25.0831 21.0103 23.568 21.8203 21.7817C19.8589 21.782 17.9391 22.3473 16.2907 23.4101C14.6422 24.4729 13.3348 25.9881 12.5249 27.7745Z" fill="#18A95D"></path> <path d="M12.5249 15.8672C15.3427 15.8672 17.627 13.5829 17.627 10.7651C17.627 7.94722 15.3427 5.6629 12.5249 5.6629C9.70702 5.6629 7.4227 7.94722 7.4227 10.7651C7.4227 13.5829 9.70702 15.8672 12.5249 15.8672Z" fill="#014593"></path> <path d="M78.1872 10.7651H82.4554V27.3118H78.1872V20.8679H70.7329V27.3134H66.4647V10.7651H70.7329V16.8627H78.1872V10.7651ZM84.4663 14.8751H89.7815V27.3184H94.053V14.8751H99.3033V10.7651H84.4663V14.8751ZM120 23.7194V27.2352C119.273 27.5997 118.362 27.7812 117.302 27.7812C115.084 27.7812 113.972 26.8157 113.52 25.2626L113.45 25.3658C112.158 26.9871 110.372 27.7812 108.054 27.7812C105.837 27.7812 103.951 26.9489 102.363 25.2659C100.807 23.5779 100.012 21.4938 100.012 19.0451C100.012 16.5964 100.807 14.5505 102.363 12.8559C103.951 11.1696 105.837 10.309 108.054 10.309C110.272 10.309 112 11.0364 113.275 12.518V10.7651H117.545V22.4693C117.545 23.4681 117.999 23.9841 118.908 23.9841C119.29 23.9952 119.668 23.9014 120 23.7128V23.7194ZM113.45 19.0368C113.45 17.6801 113.018 16.5548 112.118 15.6941C111.257 14.8002 110.165 14.3624 108.842 14.3624C107.518 14.3624 106.426 14.7919 105.566 15.6941C104.705 16.5548 104.276 17.6801 104.276 19.0368C104.276 20.3934 104.705 21.5188 105.566 22.4127C106.436 23.2694 107.53 23.6978 108.848 23.6978C110.167 23.6978 111.259 23.2678 112.125 22.4077C113.018 21.5204 113.45 20.3951 113.45 19.0368ZM31.2955 10.7651L31.169 16.9809C31.1374 19.4979 31.0475 20.7414 30.6829 22.1663C30.35 23.5297 29.7124 23.9159 28.712 23.9159C28.4142 23.9269 28.1167 23.8858 27.833 23.7943V27.3118C28.166 27.4932 28.712 27.5848 29.4411 27.5848C32.4375 27.4932 33.8974 26.0766 34.6248 23.5297C35.1409 21.7119 35.2308 20.3169 35.3223 18.2244L35.4172 14.8751H40.7191V27.3184H44.9873V10.7651H31.2955ZM51.8557 20.1537C52.3151 22.9837 54.5541 23.9025 56.8263 23.9025C58.3245 23.9025 59.9076 23.3149 60.8798 22.4343L63.5133 25.0828C61.9402 26.8257 59.7511 27.7745 56.7598 27.7745C52.5715 27.7745 47.5192 25.3025 47.5192 19.0384C47.5192 12.7743 52.3834 10.3023 56.5084 10.3023C61.7354 10.3023 63.8995 12.756 63.8995 15.5093C63.9061 20.0106 58.1864 22.0897 51.8557 20.1537ZM59.2701 15.9921C59.2701 14.7086 57.9999 14.136 56.5783 14.136C54.4043 14.136 52.5215 15.0532 51.9489 17.4137C56.3769 18.7038 59.2701 17.745 59.2701 15.9971V15.9921Z" fill="#004593"></path> </g> <defs> <clipPath id="clip0_12_472"> <rect width="120" height="27.2154" fill="white" transform="translate(0 0.559082)"></rect> </clipPath> </defs> 
</svg> 

