<svg width="24" height="24" viewBox="0 0 24 24" fill="none" xmlns="http://www.w3.org/2000/svg">
<path fill-rule="evenodd" clip-rule="evenodd" d="M21.5858 3.3038H13.9882V1.51355L1.5 3.44105V20.3363L13.9882 22.4873V19.8338H21.5858C21.8158 19.8455 22.0412 19.7655 22.2125 19.6115C22.3839 19.4575 22.4872 19.2418 22.5 19.0118V4.12505C22.487 3.89515 22.3836 3.67972 22.2123 3.52585C22.041 3.37197 21.8157 3.29214 21.5858 3.3038ZM21.7057 19.1483H13.9628L13.95 17.7316H15.8153V16.0816H13.9357L13.9268 15.1066H15.8153V13.4566H13.9125L13.9035 12.4816H15.8153V10.8316H13.8975V9.85655H15.8153V8.20655H13.8975V7.23155H15.8153V5.58155H13.8975V4.08155H21.7057V19.1483Z" fill="#003C96"/>
<path d="M16.8652 5.57922H20.1075V7.22922H16.8652V5.57922ZM16.8652 8.20497H20.1075V9.85497H16.8652V8.20497ZM16.8652 10.8307H20.1075V12.4807H16.8652V10.8307ZM16.8652 13.4565H20.1075V15.1065H16.8652V13.4565ZM16.8652 16.0822H20.1075V17.7322H16.8652V16.0822Z" fill="#003C96"/>
<path fill-rule="evenodd" clip-rule="evenodd" d="M4.76007 8.00469L6.36957 7.91244L7.38132 10.6942L8.57682 7.79769L10.1863 7.70544L8.23182 11.6549L10.1863 15.6142L8.48457 15.4994L7.33557 12.4814L6.18582 15.3847L4.62207 15.2467L6.43857 11.7494L4.76007 8.00469Z" fill="white"/>
</svg>
