<?xml version="1.0" encoding="UTF-8"?>
<svg viewBox="0 0 24 24" xmlns="http://www.w3.org/2000/svg">
<path d="m21.586 3.3038h-7.5976v-1.7902l-12.488 1.9275v16.895l12.488 2.151v-2.6535h7.5976c0.23 0.0117 0.4554-0.0683 0.6267-0.2223 0.1714-0.154 0.2747-0.3697 0.2875-0.5997v-14.887c-0.013-0.2299-0.1164-0.44533-0.2877-0.5992-0.1713-0.15388-0.3966-0.23371-0.6265-0.22205zm0.1199 15.844h-7.7429l-0.0128-1.4167h1.8653v-1.65h-1.8796l-0.0089-0.975h1.8885v-1.65h-1.9028l-9e-3 -0.975h1.9118v-1.65h-1.9178v-0.97505h1.9178v-1.65h-1.9178v-0.975h1.9178v-1.65h-1.9178v-1.5h7.8082v15.067z" clip-rule="evenodd" fill="#003C96" fill-rule="evenodd"/>
<path d="m16.865 5.5792h3.2423v1.65h-3.2423v-1.65zm0 2.6258h3.2423v1.65h-3.2423v-1.65zm0 2.6257h3.2423v1.65h-3.2423v-1.65zm0 2.6258h3.2423v1.65h-3.2423v-1.65zm0 2.6257h3.2423v1.65h-3.2423v-1.65z" fill="#003C96"/>
<path d="m4.7601 8.0047 1.6095-0.09225 1.0118 2.7818 1.1955-2.8965 1.6095-0.09225-1.9545 3.9495 1.9545 3.9593-1.7017-0.1148-1.149-3.018-1.1498 2.9033-1.5638-0.138 1.8165-3.4973-1.6785-3.7447z" clip-rule="evenodd" fill="#fff" fill-rule="evenodd"/>
</svg>
